# Blender v2.79 (sub 0) OBJ File: 'coin.blend'
# www.blender.org
mtllib coin.mtl
o Circle.006
v -1.290168 1.520588 1.412828
v -1.227987 1.287430 1.340952
v -1.349348 1.287430 1.235962
v -1.411528 1.520588 1.307838
v 1.213734 2.537435 -1.481492
v 1.206565 2.798756 -1.473205
v 1.085205 2.798756 -1.578195
v 1.092373 2.537435 -1.586482
v -1.339252 1.764887 1.469566
v -1.460613 1.764887 1.364576
v 1.206565 2.276114 -1.473205
v 1.085205 2.276114 -1.578195
v -1.374702 2.017650 1.510543
v -1.496063 2.017650 1.405553
v 1.185140 2.017656 -1.448439
v 1.063779 2.017656 -1.553429
v -1.396128 2.276107 1.535310
v -1.517489 2.276107 1.430320
v 1.149690 1.764893 -1.407462
v 1.028330 1.764893 -1.512452
v -1.403296 2.537428 1.543595
v -1.524657 2.537428 1.438605
v 1.100606 1.520594 -1.350725
v 0.979246 1.520594 -1.455715
v -1.396129 2.798749 1.535310
v -1.517489 2.798749 1.430320
v 1.038426 1.287435 -1.278849
v 0.917065 1.287435 -1.383839
v -1.374703 3.057207 1.510544
v -1.496064 3.057207 1.405554
v 0.963830 1.067972 -1.192621
v 0.842470 1.067972 -1.297611
v -1.339254 3.309970 1.469568
v -1.460615 3.309970 1.364578
v 0.877635 0.864609 -1.092986
v 0.756274 0.864609 -1.197976
v -1.290172 3.554269 1.412831
v -1.411532 3.554269 1.307841
v 0.780787 0.679574 -0.981037
v 0.659426 0.679574 -1.086027
v -1.227991 3.787428 1.340956
v -1.349352 3.787428 1.235966
v 0.674345 0.514893 -0.857999
v 0.552985 0.514893 -0.962989
v -1.153396 4.006891 1.254729
v -1.274756 4.006891 1.149739
v 0.559477 0.372372 -0.725220
v 0.438116 0.372372 -0.830210
v -1.067201 4.210255 1.155095
v -1.188562 4.210255 1.050105
v 0.437441 0.253572 -0.584155
v 0.316080 0.253572 -0.689145
v -0.970353 4.395291 1.043145
v -1.091713 4.395291 0.938155
v 0.309573 0.159795 -0.436350
v 0.188213 0.159795 -0.541340
v 0.041995 5.023740 -0.127052
v -0.094782 5.037436 0.031052
v -0.216142 5.037436 -0.073938
v -0.079365 5.023740 -0.232042
v -0.863912 4.559972 0.920107
v -0.985272 4.559972 0.815117
v 0.177276 0.092067 -0.283425
v 0.055915 0.092067 -0.388415
v 0.177274 4.982804 -0.283424
v 0.055913 4.982804 -0.388414
v -0.749044 4.702494 0.787329
v -0.870404 4.702494 0.682339
v 0.041997 0.051131 -0.127053
v -0.079364 0.051131 -0.232043
v 0.309572 4.915077 -0.436350
v 0.188212 4.915077 -0.541340
v -0.627008 4.821295 0.646264
v -0.748368 4.821295 0.541274
v -0.094780 0.037435 0.031051
v -0.216140 0.037435 -0.073939
v 0.437439 4.821299 -0.584155
v 0.316079 4.821299 -0.689145
v -0.499141 4.915073 0.498460
v -0.620501 4.915073 0.393470
v -0.231557 0.051130 0.189155
v -0.352917 0.051130 0.084165
v 0.559476 4.702498 -0.725220
v 0.438116 4.702498 -0.830210
v -0.366843 4.982802 0.345534
v -0.488203 4.982802 0.240544
v -0.366835 0.092066 0.345526
v -0.488195 0.092066 0.240536
v 0.674344 4.559978 -0.857999
v 0.552984 4.559978 -0.962989
v -0.231565 5.023739 0.189162
v -0.352925 5.023739 0.084172
v -0.499133 0.159793 0.498452
v -0.620493 0.159793 0.393462
v 0.780786 4.395297 -0.981037
v 0.659426 4.395297 -1.086027
v -0.627001 0.253570 0.646257
v -0.748361 0.253570 0.541267
v 0.877634 4.210262 -1.092987
v 0.756274 4.210262 -1.197977
v -0.749037 0.372370 0.787322
v -0.870397 0.372370 0.682332
v 0.963830 4.006898 -1.192622
v 0.842469 4.006898 -1.297612
v -0.863905 0.514890 0.920101
v -0.985266 0.514890 0.815111
v 1.038425 3.787435 -1.278849
v 0.917065 3.787435 -1.383839
v -0.970347 0.679570 1.043139
v -1.091707 0.679570 0.938149
v 1.100607 3.554277 -1.350726
v 0.979246 3.554277 -1.455716
v -1.067196 0.864605 1.155089
v -1.188556 0.864605 1.050099
v 1.149691 3.309978 -1.407463
v 1.028330 3.309978 -1.512453
v -1.153391 1.067968 1.254724
v -1.274751 1.067968 1.149734
v 1.185140 3.057214 -1.448439
v 1.063779 3.057214 -1.553429
vt 0.000000 0.000000
vt 1.000000 0.000000
vt 1.000000 1.000000
vt 0.000000 1.000000
vt 0.000000 0.000000
vt 1.000000 0.000000
vt 1.000000 1.000000
vt 0.000000 1.000000
vt 0.000000 0.000000
vt 1.000000 0.000000
vt 1.000000 1.000000
vt 0.000000 1.000000
vt 0.000000 0.000000
vt 1.000000 0.000000
vt 1.000000 1.000000
vt 0.000000 1.000000
vt 0.000000 0.000000
vt 1.000000 0.000000
vt 1.000000 1.000000
vt 0.000000 1.000000
vt 0.000000 0.000000
vt 1.000000 0.000000
vt 1.000000 1.000000
vt 0.000000 1.000000
vt 0.000000 0.000000
vt 1.000000 0.000000
vt 1.000000 1.000000
vt 0.000000 1.000000
vt 0.000000 0.000000
vt 1.000000 0.000000
vt 1.000000 1.000000
vt 0.000000 1.000000
vt 0.000000 0.000000
vt 1.000000 0.000000
vt 1.000000 1.000000
vt 0.000000 1.000000
vt 0.000000 0.000000
vt 1.000000 0.000000
vt 1.000000 1.000000
vt 0.000000 1.000000
vt 0.000000 0.000000
vt 1.000000 0.000000
vt 1.000000 1.000000
vt 0.000000 1.000000
vt 0.000000 0.000000
vt 1.000000 0.000000
vt 1.000000 1.000000
vt 0.000000 1.000000
vt 0.000000 0.000000
vt 1.000000 0.000000
vt 1.000000 1.000000
vt 0.000000 1.000000
vt 0.000000 0.000000
vt 1.000000 0.000000
vt 1.000000 1.000000
vt 0.000000 1.000000
vt 0.000000 0.000000
vt 1.000000 0.000000
vt 1.000000 1.000000
vt 0.000000 1.000000
vt 0.000000 0.000000
vt 1.000000 0.000000
vt 1.000000 1.000000
vt 0.000000 1.000000
vt 0.000000 0.000000
vt 1.000000 0.000000
vt 1.000000 1.000000
vt 0.000000 1.000000
vt 0.000000 0.000000
vt 1.000000 0.000000
vt 1.000000 1.000000
vt 0.000000 1.000000
vt 0.000000 0.000000
vt 1.000000 0.000000
vt 1.000000 1.000000
vt 0.000000 1.000000
vt 0.000000 0.000000
vt 1.000000 0.000000
vt 1.000000 1.000000
vt 0.000000 1.000000
vt 0.000000 0.000000
vt 1.000000 0.000000
vt 1.000000 1.000000
vt 0.000000 1.000000
vt 0.000000 0.000000
vt 1.000000 0.000000
vt 1.000000 1.000000
vt 0.000000 1.000000
vt 0.000000 0.000000
vt 1.000000 0.000000
vt 1.000000 1.000000
vt 0.000000 1.000000
vt 0.000000 0.000000
vt 1.000000 0.000000
vt 1.000000 1.000000
vt 0.000000 1.000000
vt 0.000000 0.000000
vt 1.000000 0.000000
vt 1.000000 1.000000
vt 0.000000 1.000000
vt 0.000000 0.000000
vt 1.000000 0.000000
vt 1.000000 1.000000
vt 0.000000 1.000000
vt 0.000000 0.000000
vt 1.000000 0.000000
vt 1.000000 1.000000
vt 0.000000 1.000000
vt 0.000000 0.000000
vt 1.000000 0.000000
vt 1.000000 1.000000
vt 0.000000 1.000000
vt 0.000000 0.000000
vt 1.000000 0.000000
vt 1.000000 1.000000
vt 0.000000 1.000000
vt 0.000000 0.000000
vt 1.000000 0.000000
vt 1.000000 1.000000
vt 0.000000 1.000000
vt 0.000000 0.000000
vt 1.000000 0.000000
vt 1.000000 1.000000
vt 0.000000 1.000000
vt 0.000000 0.000000
vt 1.000000 0.000000
vt 1.000000 1.000000
vt 0.000000 1.000000
vt 0.000000 0.000000
vt 1.000000 0.000000
vt 1.000000 1.000000
vt 0.000000 1.000000
vt 0.000000 0.000000
vt 1.000000 0.000000
vt 1.000000 1.000000
vt 0.000000 1.000000
vt 0.000000 0.000000
vt 1.000000 0.000000
vt 1.000000 1.000000
vt 0.000000 1.000000
vt 0.000000 0.000000
vt 1.000000 0.000000
vt 1.000000 1.000000
vt 0.000000 1.000000
vt 0.000000 0.000000
vt 1.000000 0.000000
vt 1.000000 1.000000
vt 0.000000 1.000000
vt 0.000000 0.000000
vt 1.000000 0.000000
vt 1.000000 1.000000
vt 0.000000 1.000000
vt 0.000000 0.000000
vt 1.000000 0.000000
vt 1.000000 1.000000
vt 0.000000 1.000000
vt 0.000000 0.000000
vt 1.000000 0.000000
vt 1.000000 1.000000
vt 0.000000 1.000000
vt 0.000000 0.000000
vt 1.000000 0.000000
vt 1.000000 1.000000
vt 0.000000 1.000000
vt 0.000000 0.000000
vt 1.000000 0.000000
vt 1.000000 1.000000
vt 0.000000 1.000000
vt 0.000000 0.000000
vt 1.000000 0.000000
vt 1.000000 1.000000
vt 0.000000 1.000000
vt 0.000000 0.000000
vt 1.000000 0.000000
vt 1.000000 1.000000
vt 0.000000 1.000000
vt 0.000000 0.000000
vt 1.000000 0.000000
vt 1.000000 1.000000
vt 0.000000 1.000000
vt 0.000000 0.000000
vt 1.000000 0.000000
vt 1.000000 1.000000
vt 0.000000 1.000000
vt 0.000000 0.000000
vt 1.000000 0.000000
vt 1.000000 1.000000
vt 0.000000 1.000000
vt 0.000000 0.000000
vt 1.000000 0.000000
vt 1.000000 1.000000
vt 0.000000 1.000000
vt 0.000000 0.000000
vt 1.000000 0.000000
vt 1.000000 1.000000
vt 0.000000 1.000000
vt 0.000000 0.000000
vt 1.000000 0.000000
vt 1.000000 1.000000
vt 0.000000 1.000000
vt 0.000000 0.000000
vt 1.000000 0.000000
vt 1.000000 1.000000
vt 0.000000 1.000000
vt 0.000000 0.000000
vt 1.000000 0.000000
vt 1.000000 1.000000
vt 0.000000 1.000000
vt 0.000000 0.000000
vt 1.000000 0.000000
vt 1.000000 1.000000
vt 0.000000 1.000000
vt 0.000000 0.000000
vt 1.000000 0.000000
vt 1.000000 1.000000
vt 0.000000 1.000000
vt 0.000000 0.000000
vt 1.000000 0.000000
vt 1.000000 1.000000
vt 0.000000 1.000000
vt 0.000000 0.000000
vt 1.000000 0.000000
vt 1.000000 1.000000
vt 0.000000 1.000000
vt 0.000000 0.000000
vt 1.000000 0.000000
vt 1.000000 1.000000
vt 0.000000 1.000000
vt 0.000000 0.000000
vt 1.000000 0.000000
vt 1.000000 1.000000
vt 0.000000 1.000000
vt 0.000000 0.000000
vt 1.000000 0.000000
vt 1.000000 1.000000
vt 0.000000 1.000000
vt 0.000000 0.000000
vt 1.000000 0.000000
vt 1.000000 1.000000
vt 0.000000 1.000000
vn 0.6059 0.3775 -0.7003
vn -0.6537 -0.0419 0.7556
vn 0.6254 0.2936 -0.7230
vn -0.6537 0.0419 0.7556
vn 0.6397 0.2096 -0.7395
vn -0.6491 0.1257 0.7503
vn 0.6491 0.1257 -0.7503
vn -0.6397 0.2096 0.7395
vn 0.6537 0.0419 -0.7556
vn -0.6254 0.2936 0.7230
vn 0.6537 -0.0419 -0.7556
vn -0.6059 0.3775 0.7003
vn 0.6491 -0.1257 -0.7503
vn -0.5806 0.4610 0.6711
vn 0.6397 -0.2096 -0.7395
vn -0.5491 0.5437 0.6347
vn 0.6254 -0.2936 -0.7230
vn -0.5109 0.6247 0.5905
vn 0.6059 -0.3775 -0.7003
vn -0.4654 0.7028 0.5380
vn 0.5806 -0.4610 -0.6711
vn -0.4123 0.7764 0.4766
vn 0.5491 -0.5437 -0.6347
vn -0.3515 0.8435 0.4063
vn 0.5109 -0.6247 -0.5905
vn -0.2830 0.9016 0.3272
vn -0.0428 -0.9979 0.0494
vn 0.4654 -0.7028 -0.5380
vn -0.2078 0.9482 0.2402
vn -0.1271 -0.9810 0.1469
vn 0.4123 -0.7764 -0.4766
vn -0.1271 0.9810 0.1469
vn -0.2078 -0.9482 0.2402
vn 0.3515 -0.8435 -0.4063
vn -0.0428 0.9979 0.0494
vn -0.2830 -0.9016 0.3272
vn 0.2830 -0.9016 -0.3272
vn 0.0428 0.9979 -0.0494
vn -0.3515 -0.8435 0.4063
vn 0.2078 -0.9482 -0.2402
vn 0.1271 0.9810 -0.1469
vn -0.4123 -0.7764 0.4766
vn 0.1271 -0.9810 -0.1469
vn 0.2078 0.9482 -0.2402
vn -0.4654 -0.7028 0.5380
vn 0.0428 -0.9979 -0.0494
vn 0.2830 0.9016 -0.3272
vn -0.5109 -0.6247 0.5905
vn 0.3515 0.8435 -0.4063
vn -0.5491 -0.5437 0.6347
vn 0.4123 0.7764 -0.4766
vn -0.5806 -0.4610 0.6711
vn 0.4654 0.7028 -0.5380
vn -0.6059 -0.3775 0.7003
vn 0.5109 0.6247 -0.5905
vn -0.6254 -0.2936 0.7230
vn 0.5491 0.5437 -0.6347
vn -0.6397 -0.2096 0.7395
vn 0.5806 0.4610 -0.6711
vn -0.6491 -0.1257 0.7503
usemtl copper.002
s 1
f 1/1/1 2/2/1 3/3/1 4/4/1
f 5/5/2 6/6/2 7/7/2 8/8/2
f 9/9/3 1/10/3 4/11/3 10/12/3
f 11/13/4 5/14/4 8/15/4 12/16/4
f 13/17/5 9/18/5 10/19/5 14/20/5
f 15/21/6 11/22/6 12/23/6 16/24/6
f 17/25/7 13/26/7 14/27/7 18/28/7
f 19/29/8 15/30/8 16/31/8 20/32/8
f 21/33/9 17/34/9 18/35/9 22/36/9
f 23/37/10 19/38/10 20/39/10 24/40/10
f 25/41/11 21/42/11 22/43/11 26/44/11
f 27/45/12 23/46/12 24/47/12 28/48/12
f 29/49/13 25/50/13 26/51/13 30/52/13
f 31/53/14 27/54/14 28/55/14 32/56/14
f 33/57/15 29/58/15 30/59/15 34/60/15
f 35/61/16 31/62/16 32/63/16 36/64/16
f 37/65/17 33/66/17 34/67/17 38/68/17
f 39/69/18 35/70/18 36/71/18 40/72/18
f 41/73/19 37/74/19 38/75/19 42/76/19
f 43/77/20 39/78/20 40/79/20 44/80/20
f 45/81/21 41/82/21 42/83/21 46/84/21
f 47/85/22 43/86/22 44/87/22 48/88/22
f 49/89/23 45/90/23 46/91/23 50/92/23
f 51/93/24 47/94/24 48/95/24 52/96/24
f 53/97/25 49/98/25 50/99/25 54/100/25
f 55/101/26 51/102/26 52/103/26 56/104/26
f 57/105/27 58/106/27 59/107/27 60/108/27
f 61/109/28 53/110/28 54/111/28 62/112/28
f 63/113/29 55/114/29 56/115/29 64/116/29
f 65/117/30 57/118/30 60/119/30 66/120/30
f 67/121/31 61/122/31 62/123/31 68/124/31
f 69/125/32 63/126/32 64/127/32 70/128/32
f 71/129/33 65/130/33 66/131/33 72/132/33
f 73/133/34 67/134/34 68/135/34 74/136/34
f 75/137/35 69/138/35 70/139/35 76/140/35
f 77/141/36 71/142/36 72/143/36 78/144/36
f 79/145/37 73/146/37 74/147/37 80/148/37
f 81/149/38 75/150/38 76/151/38 82/152/38
f 83/153/39 77/154/39 78/155/39 84/156/39
f 85/157/40 79/158/40 80/159/40 86/160/40
f 87/161/41 81/162/41 82/163/41 88/164/41
f 89/165/42 83/166/42 84/167/42 90/168/42
f 91/169/43 85/170/43 86/171/43 92/172/43
f 93/173/44 87/174/44 88/175/44 94/176/44
f 95/177/45 89/178/45 90/179/45 96/180/45
f 58/181/46 91/182/46 92/183/46 59/184/46
f 97/185/47 93/186/47 94/187/47 98/188/47
f 99/189/48 95/190/48 96/191/48 100/192/48
f 101/193/49 97/194/49 98/195/49 102/196/49
f 103/197/50 99/198/50 100/199/50 104/200/50
f 105/201/51 101/202/51 102/203/51 106/204/51
f 107/205/52 103/206/52 104/207/52 108/208/52
f 109/209/53 105/210/53 106/211/53 110/212/53
f 111/213/54 107/214/54 108/215/54 112/216/54
f 113/217/55 109/218/55 110/219/55 114/220/55
f 115/221/56 111/222/56 112/223/56 116/224/56
f 117/225/57 113/226/57 114/227/57 118/228/57
f 119/229/58 115/230/58 116/231/58 120/232/58
f 2/233/59 117/234/59 118/235/59 3/236/59
f 6/237/60 119/238/60 120/239/60 7/240/60
o Circle.005
v 0.042438 5.022879 -0.126402
v 0.177717 4.981943 -0.282774
v 0.310015 4.914216 -0.435700
v 0.437882 4.820438 -0.583505
v 0.559919 4.701638 -0.724570
v 0.674787 4.559117 -0.857350
v 0.781229 4.394436 -0.980387
v 0.878078 4.209401 -1.092337
v 0.964272 4.006038 -1.191972
v 1.038869 3.786574 -1.278199
v 1.101049 3.553416 -1.350075
v 1.150133 3.309117 -1.406813
v 1.185582 3.056354 -1.447789
v 1.207008 2.797895 -1.472556
v 1.214177 2.536574 -1.480842
v 1.207009 2.275253 -1.472556
v 1.185582 2.016795 -1.447789
v 1.150133 1.764032 -1.406812
v 1.101050 1.519733 -1.350075
v 1.038869 1.286574 -1.278199
v 0.964273 1.067111 -1.191971
v 0.878078 0.863748 -1.092337
v 0.781230 0.678713 -0.980388
v 0.674788 0.514032 -0.857349
v 0.559920 0.371511 -0.724570
v 0.437884 0.252711 -0.583506
v 0.310016 0.158934 -0.435701
v 0.177718 0.091206 -0.282775
v 0.042440 0.050270 -0.126403
v -0.094337 0.036574 0.031701
v -0.231113 0.050269 0.189804
v -0.366392 0.091205 0.346176
v -0.498690 0.158932 0.499102
v -0.626557 0.252709 0.646907
v -0.748594 0.371509 0.787972
v -0.863462 0.514029 0.920750
v -0.969904 0.678709 1.043789
v -1.066753 0.863744 1.155739
v -1.152947 1.067107 1.255373
v -1.227544 1.286569 1.341601
v -1.289725 1.519727 1.413478
v -1.338809 1.764026 1.470215
v -1.374259 2.016789 1.511192
v -1.395685 2.275246 1.535959
v -1.402854 2.536567 1.544245
v -1.395686 2.797888 1.535960
v -1.374260 3.056346 1.511193
v -1.338812 3.309109 1.470218
v -1.289728 3.553408 1.413481
v -1.227548 3.786567 1.341605
v -1.152952 4.006030 1.255378
v -1.066758 4.209394 1.155744
v -0.969910 4.394430 1.043795
v -0.863469 4.559111 0.920757
v -0.748601 4.701633 0.787979
v -0.626565 4.820434 0.646914
v -0.498698 4.914212 0.499109
v -0.366400 4.981941 0.346184
v -0.231122 5.022878 0.189812
v -0.094339 5.036574 0.031702
vt 0.445216 0.925139
vt 0.399169 0.917869
vt 0.354174 0.906058
vt 0.310721 0.889834
vt 0.269289 0.869376
vt 0.230329 0.844906
vt 0.194270 0.816694
vt 0.161506 0.785047
vt 0.132395 0.750314
vt 0.107258 0.712873
vt 0.086370 0.673138
vt 0.069959 0.631541
vt 0.058205 0.588538
vt 0.051238 0.544603
vt 0.049133 0.500214
vt 0.051912 0.455859
vt 0.059547 0.412023
vt 0.071953 0.369188
vt 0.088995 0.327821
vt 0.110485 0.288377
vt 0.136188 0.251287
vt 0.165825 0.216957
vt 0.199067 0.185765
vt 0.235552 0.158053
vt 0.274880 0.134122
vt 0.316620 0.114236
vt 0.360317 0.098612
vt 0.405488 0.087423
vt 0.451640 0.080790
vt 0.498268 0.078785
vt 0.544860 0.081433
vt 0.590908 0.088702
vt 0.635904 0.100513
vt 0.679358 0.116737
vt 0.720792 0.137198
vt 0.759752 0.161668
vt 0.795813 0.189882
vt 0.828576 0.221529
vt 0.857687 0.256263
vt 0.882824 0.293705
vt 0.903711 0.333442
vt 0.920122 0.375039
vt 0.931874 0.418042
vt 0.938842 0.461978
vt 0.940946 0.506367
vt 0.938165 0.550723
vt 0.930529 0.594558
vt 0.918122 0.637393
vt 0.901081 0.678758
vt 0.879589 0.718202
vt 0.853885 0.755291
vt 0.824249 0.789619
vt 0.791007 0.820810
vt 0.754522 0.848522
vt 0.715194 0.872452
vt 0.673454 0.892337
vt 0.629759 0.907959
vt 0.584589 0.919149
vt 0.538438 0.925781
vt 0.491808 0.927786
vn -0.7563 -0.0000 -0.6543
usemtl penny_front.001
s 1
f 121/241/61 122/242/61 123/243/61 124/244/61 125/245/61 126/246/61 127/247/61 128/248/61 129/249/61 130/250/61 131/251/61 132/252/61 133/253/61 134/254/61 135/255/61 136/256/61 137/257/61 138/258/61 139/259/61 140/260/61 141/261/61 142/262/61 143/263/61 144/264/61 145/265/61 146/266/61 147/267/61 148/268/61 149/269/61 150/270/61 151/271/61 152/272/61 153/273/61 154/274/61 155/275/61 156/276/61 157/277/61 158/278/61 159/279/61 160/280/61 161/281/61 162/282/61 163/283/61 164/284/61 165/285/61 166/286/61 167/287/61 168/288/61 169/289/61 170/290/61 171/291/61 172/292/61 173/293/61 174/294/61 175/295/61 176/296/61 177/297/61 178/298/61 179/299/61 180/300/61
o Circle.001_Circle.000
v -0.077220 5.022879 -0.229920
v 0.058059 4.981943 -0.386292
v 0.190356 4.914216 -0.539217
v 0.318224 4.820438 -0.687022
v 0.440261 4.701638 -0.828087
v 0.555129 4.559117 -0.960867
v 0.661570 4.394436 -1.083905
v 0.758420 4.209401 -1.195855
v 0.844614 4.006038 -1.295489
v 0.919211 3.786574 -1.381717
v 0.981391 3.553416 -1.453593
v 1.030475 3.309117 -1.510330
v 1.065924 3.056354 -1.551306
v 1.087350 2.797895 -1.576073
v 1.094518 2.536574 -1.584359
v 1.087350 2.275253 -1.576073
v 1.065925 2.016795 -1.551305
v 1.030476 1.764032 -1.510329
v 0.981392 1.519733 -1.453592
v 0.919212 1.286574 -1.381716
v 0.844615 1.067111 -1.295488
v 0.758421 0.863748 -1.195854
v 0.661572 0.678713 -1.083904
v 0.555131 0.514032 -0.960866
v 0.440263 0.371511 -0.828087
v 0.318227 0.252711 -0.687023
v 0.190359 0.158934 -0.539218
v 0.058061 0.091206 -0.386291
v -0.077217 0.050270 -0.229920
v -0.213994 0.036574 -0.071816
v -0.350771 0.050269 0.086287
v -0.486050 0.091205 0.242659
v -0.618347 0.158932 0.395585
v -0.746215 0.252709 0.543390
v -0.868251 0.371509 0.684455
v -0.983119 0.514029 0.817234
v -1.089561 0.678709 0.940272
v -1.186410 0.863744 1.052222
v -1.272605 1.067107 1.151857
v -1.347201 1.286569 1.238084
v -1.409383 1.519727 1.309961
v -1.458466 1.764026 1.366698
v -1.493916 2.016789 1.407675
v -1.515343 2.275246 1.432442
v -1.522512 2.536567 1.440728
v -1.515344 2.797888 1.432442
v -1.493918 3.056346 1.407676
v -1.458470 3.309109 1.366700
v -1.409386 3.553408 1.309963
v -1.347206 3.786567 1.238088
v -1.272611 4.006030 1.151861
v -1.186416 4.209394 1.052227
v -1.089568 4.394430 0.940278
v -0.983127 4.559111 0.817240
v -0.868259 4.701633 0.684461
v -0.746223 4.820434 0.543397
v -0.618356 4.914212 0.395592
v -0.486058 4.981941 0.242666
v -0.350780 5.022878 0.086295
v -0.213997 5.036574 -0.071816
vt 0.447707 0.922568
vt 0.401670 0.915300
vt 0.356684 0.903492
vt 0.313241 0.887271
vt 0.271818 0.866817
vt 0.232866 0.842352
vt 0.196814 0.814146
vt 0.164057 0.782506
vt 0.134954 0.747781
vt 0.109822 0.710348
vt 0.088938 0.670621
vt 0.072531 0.629033
vt 0.060779 0.586040
vt 0.053813 0.542114
vt 0.051709 0.497734
vt 0.054487 0.453389
vt 0.062121 0.409563
vt 0.074524 0.366737
vt 0.091562 0.325378
vt 0.113048 0.285943
vt 0.138746 0.248861
vt 0.168376 0.214538
vt 0.201611 0.183353
vt 0.238088 0.155647
vt 0.277407 0.131721
vt 0.319139 0.111839
vt 0.362826 0.096219
vt 0.407987 0.085032
vt 0.454130 0.078400
vt 0.500747 0.076396
vt 0.547330 0.079043
vt 0.593367 0.086310
vt 0.638354 0.098119
vt 0.681799 0.114340
vt 0.723224 0.134796
vt 0.762175 0.159261
vt 0.798229 0.187469
vt 0.830985 0.219109
vt 0.860089 0.253836
vt 0.885221 0.291269
vt 0.906104 0.330998
vt 0.922511 0.372586
vt 0.934261 0.415580
vt 0.941227 0.459506
vt 0.943331 0.503886
vt 0.940550 0.548233
vt 0.932916 0.592058
vt 0.920512 0.634884
vt 0.903474 0.676240
vt 0.881987 0.715676
vt 0.856288 0.752757
vt 0.826659 0.787077
vt 0.793424 0.818262
vt 0.756947 0.845968
vt 0.717627 0.869892
vt 0.675896 0.889773
vt 0.632211 0.905392
vt 0.587050 0.916579
vt 0.540909 0.923210
vt 0.494289 0.925214
vn -0.7563 -0.0000 -0.6543
usemtl penny_front_coin_face_texture1.jpg.000
s 1
f 181/301/62 182/302/62 183/303/62 184/304/62 185/305/62 186/306/62 187/307/62 188/308/62 189/309/62 190/310/62 191/311/62 192/312/62 193/313/62 194/314/62 195/315/62 196/316/62 197/317/62 198/318/62 199/319/62 200/320/62 201/321/62 202/322/62 203/323/62 204/324/62 205/325/62 206/326/62 207/327/62 208/328/62 209/329/62 210/330/62 211/331/62 212/332/62 213/333/62 214/334/62 215/335/62 216/336/62 217/337/62 218/338/62 219/339/62 220/340/62 221/341/62 222/342/62 223/343/62 224/344/62 225/345/62 226/346/62 227/347/62 228/348/62 229/349/62 230/350/62 231/351/62 232/352/62 233/353/62 234/354/62 235/355/62 236/356/62 237/357/62 238/358/62 239/359/62 240/360/62
