# 3ds Max Wavefront OBJ Exporter v0.97b - (c)2007 guruware
# File Created: 07.09.2018 15:52:19

mtllib 7.mtl

#
# object Shape1
#

v  -1.1736 0.0000 -1.0625
v  -1.1884 0.0000 -1.0433
v  -1.1736 1.2000 -1.0625
v  -1.1884 1.2000 -1.0433
v  -1.1935 0.0000 -1.0211
v  -1.1935 1.2000 -1.0211
v  -1.1870 0.0000 -0.9922
v  -1.1870 1.2000 -0.9922
v  -1.1670 0.0000 -0.9529
v  -1.1670 1.2000 -0.9529
v  -1.1316 0.0000 -0.8994
v  -1.1316 1.2000 -0.8994
v  -1.0789 0.0000 -0.8280
v  -1.0789 1.2000 -0.8280
v  -1.0069 0.0000 -0.7347
v  -1.0069 1.2000 -0.7347
v  -0.7986 0.0000 -0.4653
v  -0.7986 1.2000 -0.4653
v  -0.7891 0.0000 -0.4554
v  -0.7891 1.2000 -0.4554
v  -0.7729 0.0000 -0.4481
v  -0.7729 1.2000 -0.4481
v  -0.7433 0.0000 -0.4427
v  -0.7433 1.2000 -0.4427
v  -0.6939 0.0000 -0.4388
v  -0.6939 1.2000 -0.4388
v  -0.6182 0.0000 -0.4359
v  -0.6182 1.2000 -0.4359
v  -0.5094 0.0000 -0.4333
v  -0.5094 1.2000 -0.4333
v  -0.3611 0.0000 -0.4306
v  -0.3611 1.2000 -0.4306
v  0.0556 0.0000 -0.4236
v  0.0556 1.2000 -0.4236
v  -0.5569 0.0000 0.2736
v  -0.5569 1.2000 0.2736
v  -0.7316 0.0000 0.4738
v  -0.7316 1.2000 0.4738
v  -0.8737 0.0000 0.6379
v  -0.8737 1.2000 0.6379
v  -0.9852 0.0000 0.7684
v  -0.9852 1.2000 0.7684
v  -1.0683 0.0000 0.8679
v  -1.0683 1.2000 0.8679
v  -1.1251 0.0000 0.9389
v  -1.1251 1.2000 0.9389
v  -1.1577 0.0000 0.9840
v  -1.1577 1.2000 0.9840
v  -1.1681 0.0000 1.0056
v  -1.1681 1.2000 1.0056
v  -1.1663 0.0000 1.0339
v  -1.1663 1.2000 1.0339
v  -1.1557 0.0000 1.0544
v  -1.1557 1.2000 1.0544
v  -1.1280 0.0000 1.0682
v  -1.1280 1.2000 1.0682
v  -1.0750 0.0000 1.0768
v  -1.0750 1.2000 1.0768
v  -0.9885 0.0000 1.0813
v  -0.9885 1.2000 1.0813
v  -0.8602 0.0000 1.0830
v  -0.8602 1.2000 1.0830
v  -0.6819 0.0000 1.0833
v  -0.6819 1.2000 1.0833
v  -0.5356 0.0000 1.0831
v  -0.5356 1.2000 1.0831
v  -0.4243 0.0000 1.0823
v  -0.4243 1.2000 1.0823
v  -0.3430 0.0000 1.0807
v  -0.3430 1.2000 1.0807
v  -0.2866 0.0000 1.0780
v  -0.2866 1.2000 1.0780
v  -0.2504 0.0000 1.0740
v  -0.2504 1.2000 1.0740
v  -0.2292 0.0000 1.0685
v  -0.2292 1.2000 1.0685
v  -0.2181 0.0000 1.0611
v  -0.2181 1.2000 1.0611
v  1.1125 0.0000 -0.4819
v  1.1125 1.2000 -0.4819
v  1.1466 0.0000 -0.5380
v  1.1466 1.2000 -0.5380
v  1.1715 0.0000 -0.5940
v  1.1715 1.2000 -0.5940
v  1.1874 0.0000 -0.6500
v  1.1874 1.2000 -0.6500
v  1.1941 0.0000 -0.7058
v  1.1941 1.2000 -0.7058
v  1.1917 0.0000 -0.7613
v  1.1917 1.2000 -0.7613
v  1.1802 0.0000 -0.8163
v  1.1802 1.2000 -0.8163
v  1.1597 0.0000 -0.8708
v  1.1597 1.2000 -0.8708
v  1.1424 0.0000 -0.9028
v  1.1424 1.2000 -0.9028
v  1.1220 0.0000 -0.9312
v  1.1220 1.2000 -0.9312
v  1.0975 0.0000 -0.9568
v  1.0975 1.2000 -0.9568
v  1.0682 0.0000 -0.9803
v  1.0682 1.2000 -0.9803
v  1.0330 0.0000 -1.0025
v  1.0330 1.2000 -1.0025
v  0.9911 0.0000 -1.0241
v  0.9911 1.2000 -1.0241
v  0.9417 0.0000 -1.0458
v  0.9417 1.2000 -1.0458
v  0.9107 0.0000 -1.0572
v  0.9107 1.2000 -1.0572
v  0.8695 0.0000 -1.0654
v  0.8695 1.2000 -1.0654
v  0.7995 0.0000 -1.0710
v  0.7995 1.2000 -1.0710
v  0.6821 0.0000 -1.0748
v  0.6821 1.2000 -1.0748
v  0.4985 0.0000 -1.0772
v  0.4985 1.2000 -1.0772
v  0.2302 0.0000 -1.0789
v  0.2302 1.2000 -1.0789
v  -0.1417 0.0000 -1.0806
v  -0.1417 1.2000 -1.0806
v  -0.4847 0.0000 -1.0815
v  -0.4847 1.2000 -1.0815
v  -0.7413 0.0000 -1.0816
v  -0.7413 1.2000 -1.0816
v  -0.9242 0.0000 -1.0807
v  -0.9242 1.2000 -1.0807
v  -1.0462 0.0000 -1.0786
v  -1.0462 1.2000 -1.0786
v  -1.1199 0.0000 -1.0751
v  -1.1199 1.2000 -1.0751
v  -1.1581 0.0000 -1.0698
v  -1.1581 1.2000 -1.0698
# 134 vertices

vn -0.6264 0.0000 -0.7795
vn -0.9043 0.0000 -0.4270
vn -1.0000 0.0000 -0.0021
vn -0.9405 0.0000 0.3397
vn -0.8638 0.0000 0.5038
vn -0.8196 0.0000 0.5730
vn -0.7983 0.0000 0.6022
vn -0.7915 0.0000 0.6112
vn -0.7567 0.0000 0.6538
vn -0.5763 0.0000 0.8173
vn -0.2973 0.0000 0.9548
vn -0.1286 0.0000 0.9917
vn -0.0589 0.0000 0.9983
vn -0.0314 0.0000 0.9995
vn -0.0210 0.0000 0.9998
vn -0.0184 0.0000 0.9998
vn -0.0167 0.0000 0.9999
vn -0.7513 0.0000 -0.6600
vn -0.7535 0.0000 -0.6575
vn -0.7547 0.0000 -0.6560
vn -0.7581 0.0000 -0.6521
vn -0.7639 0.0000 -0.6454
vn -0.7743 0.0000 -0.6328
vn -0.7960 0.0000 -0.6053
vn -0.8593 0.0000 -0.5115
vn -0.9812 0.0000 -0.1928
vn -0.9640 0.0000 0.2658
vn -0.7021 0.0000 0.7121
vn -0.3067 0.0000 0.9518
vn -0.1056 0.0000 0.9944
vn -0.0328 0.0000 0.9995
vn -0.0077 0.0000 1.0000
vn -0.0001 0.0000 1.0000
vn 0.0043 0.0000 1.0000
vn 0.0135 0.0000 0.9999
vn 0.0338 0.0000 0.9994
vn 0.0787 0.0000 0.9969
vn 0.1821 0.0000 0.9833
vn 0.4080 0.0000 0.9130
vn 0.5516 0.0000 0.8341
vn 0.7573 0.0000 0.6530
vn 0.8085 0.0000 0.5885
vn 0.8857 0.0000 0.4642
vn 0.9404 0.0000 0.3400
vn 0.9806 0.0000 0.1960
vn 0.9993 0.0000 0.0382
vn 0.9923 0.0000 -0.1238
vn 0.9604 0.0000 -0.2787
vn 0.9360 0.0000 -0.3520
vn 0.8789 0.0000 -0.4770
vn 0.8470 0.0000 -0.5316
vn 0.7694 0.0000 -0.6388
vn 0.6760 0.0000 -0.7369
vn 0.5807 0.0000 -0.8141
vn 0.4967 0.0000 -0.8679
vn 0.4305 0.0000 -0.9026
vn 0.3728 0.0000 -0.9279
vn 0.2700 0.0000 -0.9629
vn 0.1382 0.0000 -0.9904
vn 0.0563 0.0000 -0.9984
vn 0.0226 0.0000 -0.9997
vn 0.0098 0.0000 -1.0000
vn 0.0054 0.0000 -1.0000
vn 0.0044 0.0000 -1.0000
vn 0.0026 0.0000 -1.0000
vn 0.0016 0.0000 -1.0000
vn -0.0021 0.0000 -1.0000
vn -0.0109 0.0000 -0.9999
vn -0.0328 0.0000 -0.9995
vn -0.0930 0.0000 -0.9957
vn -0.2845 0.0000 -0.9587
vn 0.0000 1.0000 -0.0000
vn 0.0000 -1.0000 -0.0000
# 73 vertex normals

vt 0.1723 0.2704 0.0000
vt 0.1753 0.2646 0.0000
vt 0.1831 0.2607 0.0000
vt 0.1718 0.2784 0.0000
vt 0.1748 0.2845 0.0000
vt 0.1981 0.2583 0.0000
vt 0.1840 0.2972 0.0000
vt 0.2226 0.2570 0.0000
vt 0.2000 0.3172 0.0000
vt 0.2588 0.2565 0.0000
vt 0.2235 0.3453 0.0000
vt 0.3092 0.2564 0.0000
vt 0.2550 0.3821 0.0000
vt 0.3506 0.2565 0.0000
vt 0.2952 0.4284 0.0000
vt 0.3821 0.2567 0.0000
vt 0.3446 0.4849 0.0000
vt 0.4050 0.2572 0.0000
vt 0.4210 0.2579 0.0000
vt 0.4312 0.2591 0.0000
vt 0.4372 0.2606 0.0000
vt 0.4403 0.2627 0.0000
vt 0.8164 0.6980 0.0000
vt 0.5177 0.6816 0.0000
vt 0.8261 0.7138 0.0000
vt 0.8331 0.7296 0.0000
vt 0.8376 0.7454 0.0000
vt 0.8395 0.7612 0.0000
vt 0.8388 0.7768 0.0000
vt 0.8356 0.7924 0.0000
vt 0.8298 0.8077 0.0000
vt 0.8249 0.8167 0.0000
vt 0.8191 0.8247 0.0000
vt 0.8122 0.8320 0.0000
vt 0.8039 0.8386 0.0000
vt 0.7940 0.8449 0.0000
vt 0.7821 0.8510 0.0000
vt 0.7681 0.8571 0.0000
vt 0.7594 0.8603 0.0000
vt 0.7478 0.8626 0.0000
vt 0.7280 0.8642 0.0000
vt 0.6948 0.8653 0.0000
vt 0.6429 0.8659 0.0000
vt 0.5670 0.8664 0.0000
vt 0.4619 0.8669 0.0000
vt 0.3999 0.6835 0.0000
vt 0.3650 0.8671 0.0000
vt 0.3580 0.6843 0.0000
vt 0.2924 0.8672 0.0000
vt 0.3273 0.6850 0.0000
vt 0.3058 0.6859 0.0000
vt 0.2919 0.6870 0.0000
vt 0.2835 0.6885 0.0000
vt 0.2789 0.6905 0.0000
vt 0.2762 0.6933 0.0000
vt 0.2174 0.7693 0.0000
vt 0.2407 0.8669 0.0000
vt 0.1970 0.7956 0.0000
vt 0.2063 0.8664 0.0000
vt 0.1821 0.8158 0.0000
vt 0.1721 0.8309 0.0000
vt 0.1854 0.8653 0.0000
vt 0.1665 0.8420 0.0000
vt 0.1746 0.8638 0.0000
vt 0.1646 0.8501 0.0000
vt 0.1661 0.8564 0.0000
vt 0.1703 0.8618 0.0000
# 67 texture coords

o Shape1
g Shape1
usemtl Material__27
f 1/1/1 2/1/2 3/1/1 
f 2/1/2 4/1/2 3/1/1 
f 2/1/2 5/1/3 4/1/2 
f 5/1/3 6/1/3 4/1/2 
f 5/1/3 7/1/4 6/1/3 
f 7/1/4 8/1/4 6/1/3 
f 7/1/4 9/1/5 8/1/4 
f 9/1/5 10/1/5 8/1/4 
f 9/1/5 11/1/6 10/1/5 
f 11/1/6 12/1/6 10/1/5 
f 11/1/6 13/1/7 12/1/6 
f 13/1/7 14/1/7 12/1/6 
f 13/1/7 15/1/8 14/1/7 
f 15/1/8 16/1/8 14/1/7 
f 15/1/8 17/1/9 16/1/8 
f 17/1/9 18/1/9 16/1/8 
f 17/1/9 19/1/10 18/1/9 
f 19/1/10 20/1/10 18/1/9 
f 19/1/10 21/1/11 20/1/10 
f 21/1/11 22/1/11 20/1/10 
f 21/1/11 23/1/12 22/1/11 
f 23/1/12 24/1/12 22/1/11 
f 23/1/12 25/1/13 24/1/12 
f 25/1/13 26/1/13 24/1/12 
f 25/1/13 27/1/14 26/1/13 
f 27/1/14 28/1/14 26/1/13 
f 27/1/14 29/1/15 28/1/14 
f 29/1/15 30/1/15 28/1/14 
f 29/1/15 31/1/16 30/1/15 
f 31/1/16 32/1/16 30/1/15 
f 31/1/17 33/1/17 32/1/17 
f 33/1/17 34/1/17 32/1/17 
f 33/1/18 35/1/18 34/1/18 
f 35/1/18 36/1/18 34/1/18 
f 35/1/19 37/1/20 36/1/19 
f 37/1/20 38/1/20 36/1/19 
f 37/1/20 39/1/21 38/1/20 
f 39/1/21 40/1/21 38/1/20 
f 39/1/21 41/1/22 40/1/21 
f 41/1/22 42/1/22 40/1/21 
f 41/1/22 43/1/23 42/1/22 
f 43/1/23 44/1/23 42/1/22 
f 43/1/23 45/1/24 44/1/23 
f 45/1/24 46/1/24 44/1/23 
f 45/1/24 47/1/25 46/1/24 
f 47/1/25 48/1/25 46/1/24 
f 47/1/25 49/1/26 48/1/25 
f 49/1/26 50/1/26 48/1/25 
f 49/1/26 51/1/27 50/1/26 
f 51/1/27 52/1/27 50/1/26 
f 51/1/27 53/1/28 52/1/27 
f 53/1/28 54/1/28 52/1/27 
f 53/1/28 55/1/29 54/1/28 
f 55/1/29 56/1/29 54/1/28 
f 55/1/29 57/1/30 56/1/29 
f 57/1/30 58/1/30 56/1/29 
f 57/1/30 59/1/31 58/1/30 
f 59/1/31 60/1/31 58/1/30 
f 59/1/31 61/1/32 60/1/31 
f 61/1/32 62/1/32 60/1/31 
f 61/1/32 63/1/33 62/1/32 
f 63/1/33 64/1/33 62/1/32 
f 63/1/33 65/1/34 64/1/33 
f 65/1/34 66/1/34 64/1/33 
f 65/1/34 67/1/35 66/1/34 
f 67/1/35 68/1/35 66/1/34 
f 67/1/35 69/1/36 68/1/35 
f 69/1/36 70/1/36 68/1/35 
f 69/1/36 71/1/37 70/1/36 
f 71/1/37 72/1/37 70/1/36 
f 71/1/37 73/1/38 72/1/37 
f 73/1/38 74/1/38 72/1/37 
f 73/1/38 75/1/39 74/1/38 
f 75/1/39 76/1/39 74/1/38 
f 75/1/39 77/1/40 76/1/39 
f 77/1/40 78/1/40 76/1/39 
f 77/1/41 79/1/42 78/1/41 
f 79/1/42 80/1/42 78/1/41 
f 79/1/42 81/1/43 80/1/42 
f 81/1/43 82/1/43 80/1/42 
f 81/1/43 83/1/44 82/1/43 
f 83/1/44 84/1/44 82/1/43 
f 83/1/44 85/1/45 84/1/44 
f 85/1/45 86/1/45 84/1/44 
f 85/1/45 87/1/46 86/1/45 
f 87/1/46 88/1/46 86/1/45 
f 87/1/46 89/1/47 88/1/46 
f 89/1/47 90/1/47 88/1/46 
f 89/1/47 91/1/48 90/1/47 
f 91/1/48 92/1/48 90/1/47 
f 91/1/48 93/1/49 92/1/48 
f 93/1/49 94/1/49 92/1/48 
f 93/1/50 95/1/51 94/1/50 
f 95/1/51 96/1/51 94/1/50 
f 95/1/51 97/1/52 96/1/51 
f 97/1/52 98/1/52 96/1/51 
f 97/1/52 99/1/53 98/1/52 
f 99/1/53 100/1/53 98/1/52 
f 99/1/53 101/1/54 100/1/53 
f 101/1/54 102/1/54 100/1/53 
f 101/1/54 103/1/55 102/1/54 
f 103/1/55 104/1/55 102/1/54 
f 103/1/55 105/1/56 104/1/55 
f 105/1/56 106/1/56 104/1/55 
f 105/1/56 107/1/57 106/1/56 
f 107/1/57 108/1/57 106/1/56 
f 107/1/57 109/1/58 108/1/57 
f 109/1/58 110/1/58 108/1/57 
f 109/1/58 111/1/59 110/1/58 
f 111/1/59 112/1/59 110/1/58 
f 111/1/59 113/1/60 112/1/59 
f 113/1/60 114/1/60 112/1/59 
f 113/1/60 115/1/61 114/1/60 
f 115/1/61 116/1/61 114/1/60 
f 115/1/61 117/1/62 116/1/61 
f 117/1/62 118/1/62 116/1/61 
f 117/1/62 119/1/63 118/1/62 
f 119/1/63 120/1/63 118/1/62 
f 119/1/63 121/1/64 120/1/63 
f 121/1/64 122/1/64 120/1/63 
f 121/1/65 123/1/66 122/1/65 
f 123/1/66 124/1/66 122/1/65 
f 123/1/66 125/1/67 124/1/66 
f 125/1/67 126/1/67 124/1/66 
f 125/1/67 127/1/68 126/1/67 
f 127/1/68 128/1/68 126/1/67 
f 127/1/68 129/1/69 128/1/68 
f 129/1/69 130/1/69 128/1/68 
f 129/1/69 131/1/70 130/1/69 
f 131/1/70 132/1/70 130/1/69 
f 131/1/70 133/1/71 132/1/70 
f 133/1/71 134/1/71 132/1/70 
f 133/1/71 1/1/1 134/1/71 
f 1/1/1 3/1/1 134/1/71 
usemtl 01___Default
f 52/1/72 54/2/72 56/3/72 
f 50/4/72 52/1/72 56/3/72 
f 48/5/72 50/4/72 56/3/72 
f 48/5/72 56/3/72 58/6/72 
f 46/7/72 48/5/72 58/6/72 
f 46/7/72 58/6/72 60/8/72 
f 44/9/72 46/7/72 60/8/72 
f 44/9/72 60/8/72 62/10/72 
f 42/11/72 44/9/72 62/10/72 
f 42/11/72 62/10/72 64/12/72 
f 40/13/72 42/11/72 64/12/72 
f 40/13/72 64/12/72 66/14/72 
f 38/15/72 40/13/72 66/14/72 
f 38/15/72 66/14/72 68/16/72 
f 36/17/72 38/15/72 68/16/72 
f 36/17/72 68/16/72 70/18/72 
f 36/17/72 70/18/72 72/19/72 
f 36/17/72 72/19/72 74/20/72 
f 36/17/72 74/20/72 76/21/72 
f 36/17/72 76/21/72 78/22/72 
f 36/17/72 78/22/72 80/23/72 
f 34/24/72 36/17/72 80/23/72 
f 34/24/72 80/23/72 82/25/72 
f 34/24/72 82/25/72 84/26/72 
f 34/24/72 84/26/72 86/27/72 
f 34/24/72 86/27/72 88/28/72 
f 34/24/72 88/28/72 90/29/72 
f 34/24/72 90/29/72 92/30/72 
f 34/24/72 92/30/72 94/31/72 
f 34/24/72 94/31/72 96/32/72 
f 34/24/72 96/32/72 98/33/72 
f 34/24/72 98/33/72 100/34/72 
f 34/24/72 100/34/72 102/35/72 
f 34/24/72 102/35/72 104/36/72 
f 34/24/72 104/36/72 106/37/72 
f 34/24/72 106/37/72 108/38/72 
f 34/24/72 108/38/72 110/39/72 
f 34/24/72 110/39/72 112/40/72 
f 34/24/72 112/40/72 114/41/72 
f 34/24/72 114/41/72 116/42/72 
f 34/24/72 116/42/72 118/43/72 
f 34/24/72 118/43/72 120/44/72 
f 34/24/72 120/44/72 122/45/72 
f 32/46/72 34/24/72 122/45/72 
f 32/46/72 122/45/72 124/47/72 
f 30/48/72 32/46/72 124/47/72 
f 30/48/72 124/47/72 126/49/72 
f 28/50/72 30/48/72 126/49/72 
f 26/51/72 28/50/72 126/49/72 
f 24/52/72 26/51/72 126/49/72 
f 22/53/72 24/52/72 126/49/72 
f 20/54/72 22/53/72 126/49/72 
f 18/55/72 20/54/72 126/49/72 
f 16/56/72 18/55/72 126/49/72 
f 16/56/72 126/49/72 128/57/72 
f 14/58/72 16/56/72 128/57/72 
f 14/58/72 128/57/72 130/59/72 
f 12/60/72 14/58/72 130/59/72 
f 10/61/72 12/60/72 130/59/72 
f 10/61/72 130/59/72 132/62/72 
f 8/63/72 10/61/72 132/62/72 
f 8/63/72 132/62/72 134/64/72 
f 6/65/72 8/63/72 134/64/72 
f 4/66/72 6/65/72 134/64/72 
f 3/67/72 4/66/72 134/64/72 
usemtl Material__26
f 51/1/73 55/1/73 53/1/73 
f 49/1/73 55/1/73 51/1/73 
f 47/1/73 55/1/73 49/1/73 
f 47/1/73 57/1/73 55/1/73 
f 45/1/73 57/1/73 47/1/73 
f 45/1/73 59/1/73 57/1/73 
f 43/1/73 59/1/73 45/1/73 
f 43/1/73 61/1/73 59/1/73 
f 41/1/73 61/1/73 43/1/73 
f 41/1/73 63/1/73 61/1/73 
f 39/1/73 63/1/73 41/1/73 
f 39/1/73 65/1/73 63/1/73 
f 37/1/73 65/1/73 39/1/73 
f 37/1/73 67/1/73 65/1/73 
f 35/1/73 67/1/73 37/1/73 
f 35/1/73 69/1/73 67/1/73 
f 35/1/73 71/1/73 69/1/73 
f 35/1/73 73/1/73 71/1/73 
f 35/1/73 75/1/73 73/1/73 
f 35/1/73 77/1/73 75/1/73 
f 35/1/73 79/1/73 77/1/73 
f 33/1/73 79/1/73 35/1/73 
f 33/1/73 81/1/73 79/1/73 
f 33/1/73 83/1/73 81/1/73 
f 33/1/73 85/1/73 83/1/73 
f 33/1/73 87/1/73 85/1/73 
f 33/1/73 89/1/73 87/1/73 
f 33/1/73 91/1/73 89/1/73 
f 33/1/73 93/1/73 91/1/73 
f 33/1/73 95/1/73 93/1/73 
f 33/1/73 97/1/73 95/1/73 
f 33/1/73 99/1/73 97/1/73 
f 33/1/73 101/1/73 99/1/73 
f 33/1/73 103/1/73 101/1/73 
f 33/1/73 105/1/73 103/1/73 
f 33/1/73 107/1/73 105/1/73 
f 33/1/73 109/1/73 107/1/73 
f 33/1/73 111/1/73 109/1/73 
f 33/1/73 113/1/73 111/1/73 
f 33/1/73 115/1/73 113/1/73 
f 33/1/73 117/1/73 115/1/73 
f 33/1/73 119/1/73 117/1/73 
f 33/1/73 121/1/73 119/1/73 
f 31/1/73 121/1/73 33/1/73 
f 31/1/73 123/1/73 121/1/73 
f 29/1/73 123/1/73 31/1/73 
f 29/1/73 125/1/73 123/1/73 
f 27/1/73 125/1/73 29/1/73 
f 25/1/73 125/1/73 27/1/73 
f 23/1/73 125/1/73 25/1/73 
f 21/1/73 125/1/73 23/1/73 
f 19/1/73 125/1/73 21/1/73 
f 17/1/73 125/1/73 19/1/73 
f 15/1/73 125/1/73 17/1/73 
f 15/1/73 127/1/73 125/1/73 
f 13/1/73 127/1/73 15/1/73 
f 13/1/73 129/1/73 127/1/73 
f 11/1/73 129/1/73 13/1/73 
f 9/1/73 129/1/73 11/1/73 
f 9/1/73 131/1/73 129/1/73 
f 7/1/73 131/1/73 9/1/73 
f 7/1/73 133/1/73 131/1/73 
f 5/1/73 133/1/73 7/1/73 
f 2/1/73 133/1/73 5/1/73 
f 1/1/73 133/1/73 2/1/73 
# 264 faces

